<svg width="31" height="31" viewBox="0 0 31 31" fill="none" xmlns="http://www.w3.org/2000/svg">
<path d="M10.9792 14.209C12.0492 14.209 12.9167 13.3415 12.9167 12.2715C12.9167 11.2014 12.0492 10.334 10.9792 10.334C9.90912 10.334 9.04167 11.2014 9.04167 12.2715C9.04167 13.3415 9.90912 14.209 10.9792 14.209Z" fill="black"/>
<path d="M21.9583 12.2715C21.9583 13.3415 21.0909 14.209 20.0208 14.209C18.9508 14.209 18.0833 13.3415 18.0833 12.2715C18.0833 11.2014 18.9508 10.334 20.0208 10.334C21.0909 10.334 21.9583 11.2014 21.9583 12.2715Z" fill="black"/>
<path d="M11.4813 17.4913C11.1577 16.8642 10.389 16.6121 9.75598 16.9287C9.11792 17.2477 8.85929 18.0236 9.17832 18.6616C9.28483 18.8739 9.42047 19.073 9.56265 19.2626C9.79878 19.5775 10.1552 19.9829 10.6569 20.3843C11.6767 21.2001 13.249 21.9589 15.5003 21.9589C17.7515 21.9589 19.3239 21.2001 20.3436 20.3843C20.8453 19.9829 21.2018 19.5775 21.4379 19.2626C21.5807 19.0723 21.7105 18.8733 21.8216 18.663C22.1375 18.0333 21.8746 17.2437 21.2446 16.9287C20.6115 16.6121 19.8428 16.8642 19.5193 17.4913C19.5015 17.5235 19.2584 17.9442 18.7298 18.3671C18.1351 18.8428 17.124 19.3756 15.5003 19.3756C13.8765 19.3756 12.8655 18.8428 12.2707 18.3671C11.7422 17.9442 11.4991 17.5235 11.4813 17.4913Z" fill="black"/>
<path fill-rule="evenodd" clip-rule="evenodd" d="M15.5 29.7087C23.347 29.7087 29.7083 23.3473 29.7083 15.5003C29.7083 7.65328 23.347 1.29199 15.5 1.29199C7.65296 1.29199 1.29167 7.65328 1.29167 15.5003C1.29167 23.3473 7.65296 29.7087 15.5 29.7087ZM15.5 27.1165C9.08457 27.1165 3.88383 21.9158 3.88383 15.5003C3.88383 9.08489 9.08457 3.88415 15.5 3.88415C21.9155 3.88415 27.1162 9.08489 27.1162 15.5003C27.1162 21.9158 21.9155 27.1165 15.5 27.1165Z" fill="black"/>
</svg>
