<svg width="30" height="30" viewBox="0 0 30 30" fill="none" xmlns="http://www.w3.org/2000/svg">
<path d="M25.3499 5.92497C24.6733 5.24014 23.8674 4.69643 22.9791 4.32535C22.0908 3.95426 21.1376 3.76318 20.1749 3.76318C19.2122 3.76318 18.2591 3.95426 17.3707 4.32535C16.4824 4.69643 15.6766 5.24014 14.9999 5.92497C14.3233 5.24014 13.5174 4.69643 12.6291 4.32535C11.7408 3.95426 10.7876 3.76318 9.82493 3.76318C8.86221 3.76318 7.90907 3.95426 7.02074 4.32535C6.13241 4.69643 5.32657 5.24014 4.64993 5.92497C3.28043 7.31424 2.5127 9.18667 2.5127 11.1375C2.5127 13.0883 3.28043 14.9607 4.64993 16.35L14.1124 25.875C14.2286 25.9921 14.3669 26.0851 14.5192 26.1486C14.6715 26.212 14.8349 26.2447 14.9999 26.2447C15.1649 26.2447 15.3283 26.212 15.4806 26.1486C15.633 26.0851 15.7712 25.9921 15.8874 25.875L25.3499 16.35C26.7285 14.9655 27.5025 13.0912 27.5025 11.1375C27.5025 9.18369 26.7285 7.30946 25.3499 5.92497Z"  stroke="D9D9D9"/>
</svg>
