<svg width="30" height="30" viewBox="0 0 30 30" fill="none" xmlns="http://www.w3.org/2000/svg">
<path d="M28.75 15C28.75 22.5939 22.5939 28.75 15 28.75C7.40609 28.75 1.25 22.5939 1.25 15C1.25 7.40609 7.40609 1.25 15 1.25C22.5939 1.25 28.75 7.40609 28.75 15ZM3.75854 15C3.75854 21.2085 8.79151 26.2415 15 26.2415C21.2085 26.2415 26.2415 21.2085 26.2415 15C26.2415 8.79151 21.2085 3.75854 15 3.75854C8.79151 3.75854 3.75854 8.79151 3.75854 15Z" fill="#D9D9D9"/>
<path d="M16.875 22.5C16.875 23.5355 16.0355 24.375 15 24.375C13.9645 24.375 13.125 23.5355 13.125 22.5C13.125 21.4645 13.9645 20.625 15 20.625C16.0355 20.625 16.875 21.4645 16.875 22.5Z" fill="#D9D9D9"/>
<path d="M13.75 15V17.5C13.75 17.5 13.75 18.75 15 18.75C16.25 18.75 16.25 17.5 16.25 17.5V15C16.25 15 16.849 14.8286 17.0786 14.7354C17.0786 14.7354 17.4961 14.5864 17.7884 14.362C18.0808 14.1378 18.3451 13.8712 18.5818 13.5629C18.8323 13.2544 19.0271 12.8969 19.1663 12.4903C19.3054 12.0837 19.375 11.7548 19.375 11.25C19.375 10.4088 19.1871 9.54594 18.8114 8.915C18.4495 8.27005 17.9345 7.77232 17.2665 7.42181C16.5985 7.05727 15.8191 6.875 14.9284 6.875C14.3718 6.875 13.8776 6.9451 13.4463 7.08531C13.0148 7.2115 12.6321 7.38675 12.2981 7.61109C11.978 7.8214 11.7066 8.05975 11.4839 8.32614C11.2751 8.57851 11.1081 8.82388 10.9829 9.06223C10.8576 9.30058 10.7741 9.51087 10.7324 9.69315C10.6489 9.95954 10.6141 10.1769 10.628 10.3451C10.6558 10.5134 10.7393 10.6536 10.8785 10.7657C11.0177 10.8779 11.2334 10.9971 11.5256 11.1232C11.8318 11.2214 12.0684 11.2564 12.2354 11.2284C12.4164 11.2004 12.5625 11.1162 12.6739 10.976C12.6739 10.976 13.2673 10.1321 13.4343 9.96386C13.6153 9.7816 13.8379 9.6414 14.1024 9.54325C14.3668 9.43109 14.666 9.375 15 9.375C15.7238 9.375 16.2595 9.55026 16.6075 9.90077C16.9693 10.2373 17.0786 10.5204 17.0786 11.1653C17.0786 11.5999 17.0021 11.9505 16.849 12.2169C16.6959 12.4833 16.4941 12.7006 16.2436 12.8689C16.2436 12.8689 15.9034 12.9989 15.625 13.125C15.3606 13.2371 14.8751 13.4226 14.6246 13.5629C14.388 13.689 14.2554 13.8216 14.1024 14.018C13.9493 14.2143 13.75 14.6635 13.75 15Z" fill="#D9D9D9"/>
</svg>
