<svg width="35" height="35" viewBox="0 0 35 35" fill="none" xmlns="http://www.w3.org/2000/svg">
<path d="M30.9531 24.3325C29.6767 22.7804 27.9289 20.582 27.9289 18.3387V11.1965C27.9289 5.04418 23.3274 0.0380859 17.4464 0.0380859C11.5642 0.0380859 6.99885 5.04418 6.99885 11.1965V18.3387C6.99885 20.5437 5.10229 22.6273 3.90026 24.245C2.81854 25.6975 1.96432 26.8459 2.54182 27.9932C3.04823 29.0028 4.31807 29.1318 5.36698 29.1318H11.6342C11.6364 32.3518 14.2471 34.9626 17.4671 34.9626C20.6871 34.9626 23.3001 32.3529 23.3012 29.1318H29.7149C30.3821 29.1318 31.9418 29.1318 32.4789 27.9965C33.0203 26.8481 32.154 25.7926 30.9531 24.3325ZM17.466 32.6712C15.5104 32.6712 13.9234 31.0875 13.9212 29.1329H21.0109C21.0076 31.0875 19.4228 32.6712 17.466 32.6712ZM29.7149 26.8032H5.36588C5.19854 26.8032 5.05854 26.7978 4.9437 26.7901C5.16901 26.4412 5.49932 25.995 5.76948 25.6329C7.10167 23.8425 9.32963 21.3137 9.32963 18.3387V11.1965C9.32963 6.32715 12.8515 2.36668 17.4485 2.36668C22.0456 2.36668 25.6024 6.32824 25.6024 11.1965V18.3387C25.6024 21.4154 27.6565 23.9868 29.156 25.8112C29.4087 26.1186 29.7106 26.4861 29.9457 26.8011C29.8757 26.8032 29.7992 26.8043 29.7171 26.8043L29.7149 26.8032Z" fill="black"/>
</svg>
