<svg width="35" height="35" viewBox="0 0 35 35" fill="none" xmlns="http://www.w3.org/2000/svg">
<path d="M21.9536 15.9225L15.3021 23.0266C14.738 23.657 13.9349 24.0215 13.0889 24.0314C12.2428 24.0412 11.4316 23.6953 10.8528 23.0783C9.57434 21.7438 9.59581 19.6325 10.9012 18.3244L19.8348 8.77167C20.8203 7.67473 22.2228 7.04443 23.6974 7.03586C25.1719 7.02729 26.5817 7.64124 27.5798 8.72666C29.7089 11.0792 29.6938 14.6665 27.5448 17.0009L18.0727 27.1204C16.7247 28.4734 14.8795 29.2125 12.9701 29.1641C11.0607 29.1159 9.2552 28.2847 7.97719 26.8654C5.05597 23.5707 5.12824 18.5926 8.14389 15.3841L17.0908 5.83301" stroke="black" stroke-width="1.5" stroke-linecap="round" stroke-linejoin="round"/>
</svg>
