<svg width="30" height="30" viewBox="0 0 30 30" fill="none" xmlns="http://www.w3.org/2000/svg">
<path fill-rule="evenodd" clip-rule="evenodd" d="M15 10.3125C12.4112 10.3125 10.3125 12.4112 10.3125 15C10.3125 17.5889 12.4112 19.6875 15 19.6875C17.5889 19.6875 19.6875 17.5889 19.6875 15C19.6875 12.4112 17.5889 10.3125 15 10.3125ZM12.1875 15C12.1875 13.4468 13.4468 12.1875 15 12.1875C16.5532 12.1875 17.8125 13.4468 17.8125 15C17.8125 16.5532 16.5532 17.8125 15 17.8125C13.4468 17.8125 12.1875 16.5532 12.1875 15Z" fill="#D9D9D9"/>
<path fill-rule="evenodd" clip-rule="evenodd" d="M14.9684 1.5625C14.4129 1.56249 13.949 1.56249 13.5682 1.58846C13.1719 1.61551 12.7975 1.67381 12.4345 1.82416C11.5922 2.17305 10.923 2.84224 10.5742 3.68453C10.3925 4.12303 10.3433 4.58515 10.3246 5.08745C10.3095 5.49124 10.1057 5.82814 9.80494 6.00176C9.50421 6.17539 9.11056 6.18341 8.75333 5.9946C8.30893 5.75971 7.88411 5.57124 7.41354 5.50929C6.50966 5.39029 5.59553 5.63524 4.87224 6.19024C4.56054 6.42941 4.32284 6.7245 4.10124 7.05425C3.88835 7.37101 3.65646 7.77269 3.37868 8.25384L3.34711 8.30851C3.06931 8.78965 2.83741 9.1913 2.66953 9.53404C2.49476 9.89084 2.35805 10.2442 2.30676 10.6338C2.18776 11.5377 2.43271 12.4518 2.9877 13.1751C3.2766 13.5515 3.65216 13.8253 4.07771 14.0926C4.41994 14.3076 4.60985 14.6526 4.60983 15C4.60981 15.3472 4.4199 15.6922 4.07771 15.9072C3.65211 16.1746 3.27651 16.4484 2.98759 16.8249C2.43259 17.5481 2.18765 18.4622 2.30664 19.3661C2.35793 19.7556 2.49464 20.1091 2.6694 20.4659C2.83729 20.8086 3.06919 21.2102 3.34698 21.6914L3.37855 21.7461C3.65634 22.2273 3.88823 22.6289 4.10111 22.9456C4.32271 23.2754 4.56041 23.5705 4.87211 23.8096C5.5954 24.3646 6.50954 24.6096 7.41341 24.4906C7.88396 24.4286 8.30875 24.2402 8.75313 24.0054C9.11041 23.8165 9.50411 23.8245 9.80488 23.9983C10.1057 24.1719 10.3095 24.5087 10.3246 24.9126C10.3433 25.4149 10.3925 25.877 10.5742 26.3155C10.923 27.1578 11.5922 27.827 12.4345 28.1759C12.7975 28.3263 13.1719 28.3845 13.5682 28.4115C13.949 28.4375 14.4129 28.4375 14.9684 28.4375H15.0315C15.5871 28.4375 16.0509 28.4375 16.4318 28.4115C16.8281 28.3845 17.2025 28.3263 17.5655 28.1759C18.4077 27.827 19.077 27.1578 19.4259 26.3155C19.6075 25.877 19.6566 25.4149 19.6754 24.9125C19.6905 24.5088 19.8942 24.1719 20.195 23.9981C20.4958 23.8245 20.8895 23.8165 21.2467 24.0053C21.6911 24.2401 22.1159 24.4286 22.5865 24.4905C23.4904 24.6095 24.4045 24.3646 25.1278 23.8096C25.4395 23.5704 25.6771 23.2754 25.8988 22.9456C26.1116 22.6289 26.3435 22.2273 26.6213 21.7461L26.6529 21.6914C26.9306 21.2102 27.1626 20.8085 27.3305 20.4658C27.5053 20.109 27.6419 19.7556 27.6933 19.3661C27.8123 18.4621 27.5673 17.548 27.0123 16.8247C26.7234 16.4482 26.3478 16.1746 25.9223 15.9072C25.58 15.6922 25.3901 15.3472 25.3901 14.9999C25.3901 14.6526 25.58 14.3078 25.9221 14.0928C26.3479 13.8254 26.7235 13.5518 27.0124 13.1751C27.5674 12.4519 27.8124 11.5377 27.6934 10.6339C27.642 10.2443 27.5054 9.89093 27.3306 9.53413C27.1628 9.19141 26.9309 8.78979 26.653 8.30869L26.6215 8.25398C26.3436 7.77281 26.1118 7.3711 25.8989 7.05434C25.6773 6.72459 25.4396 6.4295 25.1279 6.19031C24.4046 5.63533 23.4905 5.39038 22.5865 5.50938C22.116 5.57133 21.6912 5.75978 21.2469 5.99465C20.8896 6.18349 20.4959 6.17545 20.1951 6.0018C19.8944 5.82816 19.6905 5.49121 19.6754 5.08739C19.6566 4.5851 19.6075 4.123 19.4259 3.68453C19.077 2.84224 18.4077 2.17305 17.5655 1.82416C17.2025 1.67381 16.8281 1.61551 16.4318 1.58846C16.0509 1.56249 15.5871 1.56249 15.0315 1.5625H14.9684ZM13.152 3.55644C13.2485 3.51649 13.395 3.47965 13.6959 3.45911C14.0053 3.43801 14.4047 3.4375 15 3.4375C15.5953 3.4375 15.9947 3.43801 16.304 3.45911C16.605 3.47965 16.7515 3.51649 16.8479 3.55644C17.2308 3.71503 17.535 4.0192 17.6935 4.40206C17.7436 4.52283 17.785 4.71109 17.8017 5.15746C17.8387 6.14794 18.35 7.10161 19.2576 7.6256C20.1651 8.1496 21.2467 8.1155 22.123 7.65235C22.5179 7.44363 22.7017 7.3854 22.8312 7.36834C23.2421 7.31425 23.6576 7.42559 23.9864 7.67785C24.0693 7.7414 24.1744 7.84986 24.3426 8.1002C24.5156 8.35754 24.7157 8.70325 25.0134 9.21875C25.311 9.73426 25.5104 10.0805 25.6468 10.3589C25.7794 10.6298 25.8207 10.7751 25.8344 10.8786C25.8885 11.2894 25.7771 11.705 25.5249 12.0337C25.4453 12.1374 25.303 12.2675 24.9246 12.5051C24.0855 13.0325 23.5152 13.952 23.5151 14.9999C23.5151 16.0479 24.0854 16.9675 24.9246 17.4949C25.3029 17.7325 25.4451 17.8625 25.5247 17.9662C25.777 18.295 25.8884 18.7105 25.8343 19.1214C25.8206 19.2249 25.7792 19.3701 25.6466 19.641C25.5103 19.9194 25.3109 20.2656 25.0132 20.7811C24.7156 21.2966 24.5155 21.6424 24.3425 21.8997C24.1743 22.15 24.0691 22.2585 23.9862 22.322C23.6575 22.5744 23.242 22.6856 22.8311 22.6316C22.7016 22.6145 22.5177 22.5562 22.1229 22.3476C21.2466 21.8844 20.165 21.8504 19.2574 22.3744C18.35 22.8984 17.8387 23.852 17.8017 24.8425C17.785 25.2889 17.7436 25.4771 17.6935 25.598C17.535 25.9807 17.2308 26.285 16.8479 26.4436C16.7515 26.4835 16.605 26.5204 16.304 26.5409C15.9947 26.562 15.5953 26.5625 15 26.5625C14.4047 26.5625 14.0053 26.562 13.6959 26.5409C13.395 26.5204 13.2485 26.4835 13.152 26.4436C12.7692 26.285 12.465 25.9807 12.3064 25.598C12.2564 25.4771 12.2149 25.2889 12.1982 24.8425C12.1612 23.8521 11.65 22.8984 10.7424 22.3744C9.8348 21.8504 8.75328 21.8845 7.87698 22.3476C7.48206 22.5564 7.29829 22.6146 7.16869 22.6316C6.75783 22.6858 6.34231 22.5744 6.01355 22.3221C5.93073 22.2586 5.82556 22.1501 5.65733 21.8997C5.48439 21.6425 5.2842 21.2967 4.98658 20.7812C4.68894 20.2658 4.48964 19.9195 4.35325 19.6411C4.22058 19.3703 4.17923 19.2249 4.1656 19.1214C4.11151 18.7105 4.22285 18.295 4.47513 17.9662C4.5547 17.8626 4.69701 17.7325 5.07525 17.4949C5.91448 16.9676 6.48478 16.048 6.48483 15.0001C6.48489 13.952 5.91456 13.0324 5.07526 12.505C4.69711 12.2674 4.55481 12.1373 4.47524 12.0336C4.22298 11.7049 4.11164 11.2894 4.16573 10.8785C4.17935 10.775 4.2207 10.6297 4.35338 10.3588C4.48976 10.0804 4.68906 9.73418 4.98669 9.21866C5.28433 8.70316 5.4845 8.35745 5.65745 8.10011C5.82569 7.84979 5.93085 7.74131 6.01366 7.67778C6.34244 7.4255 6.75795 7.31416 7.1688 7.36825C7.29841 7.38531 7.4822 7.44354 7.87716 7.6523C8.75341 8.11544 9.83489 8.14953 10.7424 7.62556C11.65 7.1016 12.1612 6.14796 12.1982 5.15753C12.2149 4.71111 12.2564 4.52284 12.3064 4.40206C12.465 4.0192 12.7692 3.71503 13.152 3.55644Z" fill="#D9D9D9"/>
</svg>
