<svg width="23" height="19" viewBox="0 0 23 19" fill="none" xmlns="http://www.w3.org/2000/svg">
<path d="M17.3929 5.14286C17.3929 7.56896 15.4261 9.53571 13 9.53571C10.5739 9.53571 8.60718 7.56896 8.60718 5.14286C8.60718 2.71675 10.5739 0.75 13 0.75C15.4261 0.75 17.3929 2.71675 17.3929 5.14286Z" stroke="black" stroke-width="1.5"/>
<path d="M17.3929 5.14286C17.3929 7.56896 15.4261 9.53571 13 9.53571C10.5739 9.53571 8.60718 7.56896 8.60718 5.14286C8.60718 2.71675 10.5739 0.75 13 0.75C15.4261 0.75 17.3929 2.71675 17.3929 5.14286Z" stroke="black" stroke-width="1.5"/>
<path d="M17.3929 5.14286C17.3929 7.56896 15.4261 9.53571 13 9.53571C10.5739 9.53571 8.60718 7.56896 8.60718 5.14286C8.60718 2.71675 10.5739 0.75 13 0.75C15.4261 0.75 17.3929 2.71675 17.3929 5.14286Z" stroke="black" stroke-width="1.5"/>
<path d="M4 17.6786C6.25 7.39287 19.75 7.39288 22 17.6786" stroke="black" stroke-width="1.5" stroke-linecap="round"/>
<path d="M4 17.6786C6.25 7.39287 19.75 7.39288 22 17.6786" stroke="black" stroke-width="1.5" stroke-linecap="round"/>
<path d="M4 17.6786C6.25 7.39287 19.75 7.39288 22 17.6786" stroke="black" stroke-width="1.5" stroke-linecap="round"/>
<path d="M1 5L5 5" stroke="black" stroke-width="1.5" stroke-linecap="round"/>
<path d="M1 5L5 5" stroke="black" stroke-width="1.5" stroke-linecap="round"/>
<path d="M1 5L5 5" stroke="black" stroke-width="1.5" stroke-linecap="round"/>
<path d="M3 3L3 7" stroke="black" stroke-width="1.5" stroke-linecap="round"/>
<path d="M3 3L3 7" stroke="black" stroke-width="1.5" stroke-linecap="round"/>
<path d="M3 3L3 7" stroke="black" stroke-width="1.5" stroke-linecap="round"/>
</svg>
